#!OML:ASF F:\VICON\USERDATA\INSTALL\Justin_Nancy\Justin_Nancy.ASF
:FULLY-SPECIFIED
:DEGREES
110
root 11.1382 16.756 -3.99857 -5.4837 -19.4776 12.4332
lowerback 8.46972 -3.2862 -6.71224
upperback -0.261448 -5.06966 -0.377838
thorax -4.47496 -2.36048 3.95854
lowerneck -10.6511 -9.92017 -13.8824
upperneck 20.7425 -12.625 6.19951
head 9.61282 -6.41777 2.82463
rclavicle -8.05078e-014 -1.74931e-014
rhumerus -40.7977 -23.3749 -68.7471
rradius 22.2042
rwrist 21.3228
rhand -9.68472 9.777
rfingers 7.12502
rthumb 16.2872 -19.559
lclavicle -8.05078e-014 -1.74931e-014
lhumerus -36.7323 26.142 63.009
lradius 26.4137
lwrist -2.346
lhand -24.9337 20.0486
lfingers 7.12502
lthumb 1.57564 50.0225
rfemur -25.879 -0.274845 28.6692
rtibia 28.128
rfoot 1.54805 -3.79722
rtoes 26.7151
lfemur -4.41792 7.19946 -17.9345
ltibia 62.9053
lfoot -44.769 -5.9368
ltoes -29.1045
111
root 11.0641 16.7515 -3.83862 -5.61091 -21.7497 12.5717
lowerback 8.32399 -3.20422 -6.96143
upperback -0.326553 -4.9726 -0.294523
thorax -4.44472 -2.30577 4.16547
lowerneck -10.4615 -9.95317 -13.961
upperneck 20.6544 -12.7403 6.42632
head 9.58048 -6.46155 2.9066
rclavicle -1.61016e-014 -7.95139e-015
rhumerus -39.4211 -21.4733 -70.6302
rradius 23.347
rwrist 19.1543
rhand -9.35489 9.59791
rfingers 7.12502
rthumb 16.6048 -19.7117
lclavicle -1.61016e-014 -7.95139e-015
lhumerus -38.3043 27.0853 62.0118
lradius 26.097
lwrist -1.83732
lhand -24.7469 22.9163
lfingers 7.12502
lthumb 1.75605 52.8888
rfemur -25.2841 0.743113 29.1593
rtibia 28.5404
rfoot 0.712501 -2.32046
rtoes 23.4737
lfemur -5.82818 7.89624 -17.9552
ltibia 65.4002
lfoot -39.6014 -6.04334
ltoes -24.3552
112
root 10.9916 16.7579 -3.6828 -5.56045 -24.2126 12.5015
lowerback 8.15988 -3.14247 -7.05316
upperback -0.640198 -4.887 -0.0304042
thorax -4.66227 -2.24115 4.4854
lowerneck -9.82008 -9.77603 -14.114
upperneck 20.6052 -12.5894 6.51869
head 9.44526 -6.41611 3.01452
rclavicle -6.03311e-014 1.43125e-014
rhumerus -38.3869 -18.2236 -72.7532
rradius 24.8396
rwrist 16.1094
rhand -9.55902 8.76479
rfingers 7.12502
rthumb 16.4083 -20.5612
lclavicle -6.03311e-014 1.43125e-014
lhumerus -40.2162 27.6637 61.0982
lradius 25.0566
lwrist -1.74912
lhand -25.1837 21.8545
lfingers 7.12502
lthumb 1.33416 51.8301
rfemur -24.6628 1.74687 29.8913
rtibia 28.7113
rfoot -0.0954081 -1.1058
rtoes 21.6763
lfemur -7.56607 8.37577 -17.7158
ltibia 67.3421
lfoot -35.6159 -6.42286
ltoes -26.215
113
root 10.913 16.8042 -3.51917 -5.71059 -26.6504 12.6986
lowerback 8.00676 -2.97068 -7.17905
upperback -0.917081 -4.66216 0.132784
thorax -4.87309 -2.1083 4.70517
lowerneck -9.07227 -9.68919 -14.5052
upperneck 20.5618 -12.5782 6.76391
head 9.33645 -6.44183 3.1943
rclavicle -4.86525e-014 4.77083e-015
rhumerus -37.5094 -15.9805 -74.1628
rradius 25.9841
rwrist 14.2761
rhand -10.0067 8.1476
rfingers 7.12502
rthumb 15.9772 -21.2135
lclavicle -4.86525e-014 4.77083e-015
lhumerus -41.6795 27.3747 60.93
lradius 24.2153
lwrist -0.662822
lhand -24.8156 27.8267
lfingers 7.12502
lthumb 1.68965 57.7997
rfemur -23.6772 2.43046 30.3042
rtibia 28.6037
rfoot -1.08496 -0.057584
rtoes 22.6249
lfemur -9.55654 8.42 -17.7997
ltibia 68.8349
lfoot -31.5083 -8.47158
ltoes -23.1916
114
root 10.8441 16.8222 -3.35833 -5.98864 -29.2103 13.1085
lowerback 7.72321 -2.70877 -7.29827
upperback -0.941966 -4.30839 0.0235439
thorax -4.7854 -1.93514 4.60403
lowerneck -9.0597 -9.74912 -14.525
upperneck 20.7939 -12.7655 7.0883
head 9.4597 -6.50598 3.28073
rclavicle -1.2275e-014 1.43125e-014
rhumerus -36.2493 -15.2218 -75.4284
rradius 26.671
rwrist 13.6874
rhand -10.2237 8.52595
rfingers 7.12502
rthumb 15.7682 -20.8518
lclavicle -1.2275e-014 1.43125e-014
lhumerus -42.5995 26.513 61.0818
lradius 23.8541
lwrist 0.200117
lhand -23.181 32.5818
lfingers 7.12502
lthumb 3.26828 62.5365
rfemur -22.7394 2.98051 30.5381
rtibia 28.4939
rfoot -2.10494 1.51387
rtoes 21.8824
lfemur -10.8292 8.41271 -17.9793
ltibia 70.1839
lfoot -26.225 -8.31696
ltoes -23.336
115
root 10.781 16.8667 -3.19911 -6.34018 -31.626 14.1279
lowerback 7.39419 -2.58066 -7.84756
upperback -1.01575 -4.17682 -0.212932
thorax -4.67614 -1.86194 4.63117
lowerneck -9.56414 -9.64787 -14.2554
upperneck 21.1383 -12.6475 7.16195
head 9.64367 -6.41512 3.25836
rclavicle -4.40308e-014 -1.43125e-014
rhumerus -34.7223 -14.1774 -76.9389
rradius 27.3793
rwrist 12.9716
rhand -10.4518 8.95126
rfingers 7.12502
rthumb 15.5486 -20.4437
lclavicle -4.40308e-014 -1.43125e-014
lhumerus -43.6214 26.0491 61.0089
lradius 23.5897
lwrist 0.0806712
lhand -21.0116 31.5644
lfingers 7.12502
lthumb 5.36319 61.4765
rfemur -22.0785 2.85171 30.1758
rtibia 28.4067
rfoot -3.58444 3.52281
rtoes 20.4974
lfemur -12.9738 7.76833 -18.99
ltibia 71.206
lfoot -20.8731 -10.1003
ltoes -25.5549
